<svg width="129" height="126" viewBox="0 0 129 126" fill="none" xmlns="http://www.w3.org/2000/svg">
<g opacity="0.7">
<path opacity="0.7" d="M1.39999 2.8C2.17319 2.8 2.79999 2.17321 2.79999 1.40001C2.79999 0.62681 2.17319 0 1.39999 0C0.626795 0 0 0.62681 0 1.40001C0 2.17321 0.626795 2.8 1.39999 2.8Z" fill="black"/>
<path opacity="0.7" d="M13.9596 2.8C14.7328 2.8 15.3596 2.17321 15.3596 1.40001C15.3596 0.62681 14.7328 0 13.9596 0C13.1864 0 12.5596 0.62681 12.5596 1.40001C12.5596 2.17321 13.1864 2.8 13.9596 2.8Z" fill="black"/>
<path opacity="0.7" d="M26.5299 2.8C27.3031 2.8 27.9299 2.17321 27.9299 1.40001C27.9299 0.62681 27.3031 0 26.5299 0C25.7567 0 25.1299 0.62681 25.1299 1.40001C25.1299 2.17321 25.7567 2.8 26.5299 2.8Z" fill="black"/>
<path opacity="0.7" d="M39.0904 2.8C39.8636 2.8 40.4904 2.17321 40.4904 1.40001C40.4904 0.62681 39.8636 0 39.0904 0C38.3172 0 37.6904 0.62681 37.6904 1.40001C37.6904 2.17321 38.3172 2.8 39.0904 2.8Z" fill="black"/>
<path opacity="0.7" d="M51.6598 2.8C52.433 2.8 53.0598 2.17321 53.0598 1.40001C53.0598 0.62681 52.433 0 51.6598 0C50.8866 0 50.2598 0.62681 50.2598 1.40001C50.2598 2.17321 50.8866 2.8 51.6598 2.8Z" fill="black"/>
<path opacity="0.7" d="M65.6203 1.40001C65.6203 2.17001 64.9903 2.8 64.2203 2.8C63.4503 2.8 62.8203 2.18001 62.8203 1.40001C62.8203 0.630009 63.4503 0 64.2203 0C64.9903 0 65.6203 0.620009 65.6203 1.40001Z" fill="black"/>
<path opacity="0.7" d="M76.7799 2.8C77.5531 2.8 78.1799 2.17321 78.1799 1.40001C78.1799 0.62681 77.5531 0 76.7799 0C76.0067 0 75.3799 0.62681 75.3799 1.40001C75.3799 2.17321 76.0067 2.8 76.7799 2.8Z" fill="black"/>
<path opacity="0.7" d="M90.7404 1.40001C90.7404 2.17001 90.1104 2.8 89.3404 2.8C88.5704 2.8 87.9404 2.18001 87.9404 1.40001C87.9404 0.630009 88.5704 0 89.3404 0C90.1204 0 90.7404 0.620009 90.7404 1.40001Z" fill="black"/>
<path opacity="0.7" d="M101.91 2.8C102.683 2.8 103.31 2.17321 103.31 1.40001C103.31 0.62681 102.683 0 101.91 0C101.137 0 100.51 0.62681 100.51 1.40001C100.51 2.17321 101.137 2.8 101.91 2.8Z" fill="black"/>
<path opacity="0.7" d="M115.87 1.40001C115.87 2.17001 115.24 2.8 114.47 2.8C113.7 2.8 113.07 2.18001 113.07 1.40001C113.07 0.630009 113.7 0 114.47 0C115.25 0 115.87 0.620009 115.87 1.40001Z" fill="black"/>
<path opacity="0.7" d="M127.04 2.8C127.813 2.8 128.44 2.17321 128.44 1.40001C128.44 0.62681 127.813 0 127.04 0C126.266 0 125.64 0.62681 125.64 1.40001C125.64 2.17321 126.266 2.8 127.04 2.8Z" fill="black"/>
</g>
<g opacity="0.7">
<path opacity="0.7" d="M1.39999 13.96C2.17319 13.96 2.79999 13.3332 2.79999 12.56C2.79999 11.7868 2.17319 11.16 1.39999 11.16C0.626795 11.16 0 11.7868 0 12.56C0 13.3332 0.626795 13.96 1.39999 13.96Z" fill="black"/>
<path opacity="0.7" d="M13.9596 13.96C14.7328 13.96 15.3596 13.3332 15.3596 12.56C15.3596 11.7868 14.7328 11.16 13.9596 11.16C13.1864 11.16 12.5596 11.7868 12.5596 12.56C12.5596 13.3332 13.1864 13.96 13.9596 13.96Z" fill="black"/>
<path opacity="0.7" d="M26.5299 13.96C27.3031 13.96 27.9299 13.3332 27.9299 12.56C27.9299 11.7868 27.3031 11.16 26.5299 11.16C25.7567 11.16 25.1299 11.7868 25.1299 12.56C25.1299 13.3332 25.7567 13.96 26.5299 13.96Z" fill="black"/>
<path opacity="0.7" d="M39.0904 13.96C39.8636 13.96 40.4904 13.3332 40.4904 12.56C40.4904 11.7868 39.8636 11.16 39.0904 11.16C38.3172 11.16 37.6904 11.7868 37.6904 12.56C37.6904 13.3332 38.3172 13.96 39.0904 13.96Z" fill="black"/>
<path opacity="0.7" d="M51.6598 13.96C52.433 13.96 53.0598 13.3332 53.0598 12.56C53.0598 11.7868 52.433 11.16 51.6598 11.16C50.8866 11.16 50.2598 11.7868 50.2598 12.56C50.2598 13.3332 50.8866 13.96 51.6598 13.96Z" fill="black"/>
<path opacity="0.7" d="M65.6203 12.56C65.6203 13.33 64.9903 13.96 64.2203 13.96C63.4503 13.96 62.8203 13.34 62.8203 12.56C62.8203 11.79 63.4503 11.16 64.2203 11.16C64.9903 11.17 65.6203 11.79 65.6203 12.56Z" fill="black"/>
<path opacity="0.7" d="M76.7799 13.96C77.5531 13.96 78.1799 13.3332 78.1799 12.56C78.1799 11.7868 77.5531 11.16 76.7799 11.16C76.0067 11.16 75.3799 11.7868 75.3799 12.56C75.3799 13.3332 76.0067 13.96 76.7799 13.96Z" fill="black"/>
<path opacity="0.7" d="M90.7404 12.56C90.7404 13.33 90.1104 13.96 89.3404 13.96C88.5704 13.96 87.9404 13.34 87.9404 12.56C87.9404 11.79 88.5704 11.16 89.3404 11.16C90.1204 11.17 90.7404 11.79 90.7404 12.56Z" fill="black"/>
<path opacity="0.7" d="M101.91 13.96C102.683 13.96 103.31 13.3332 103.31 12.56C103.31 11.7868 102.683 11.16 101.91 11.16C101.137 11.16 100.51 11.7868 100.51 12.56C100.51 13.3332 101.137 13.96 101.91 13.96Z" fill="black"/>
<path opacity="0.7" d="M115.87 12.56C115.87 13.33 115.24 13.96 114.47 13.96C113.7 13.96 113.07 13.34 113.07 12.56C113.07 11.79 113.7 11.16 114.47 11.16C115.25 11.17 115.87 11.79 115.87 12.56Z" fill="black"/>
<path opacity="0.7" d="M127.04 13.96C127.813 13.96 128.44 13.3332 128.44 12.56C128.44 11.7868 127.813 11.16 127.04 11.16C126.266 11.16 125.64 11.7868 125.64 12.56C125.64 13.3332 126.266 13.96 127.04 13.96Z" fill="black"/>
</g>
<g opacity="0.7">
<path opacity="0.7" d="M2.79999 23.73C2.79999 24.5 2.16999 25.13 1.39999 25.13C0.629994 25.13 0 24.5 0 23.73C0 22.96 0.619994 22.33 1.39999 22.33C2.16999 22.34 2.79999 22.96 2.79999 23.73Z" fill="black"/>
<path opacity="0.7" d="M15.3596 23.73C15.3596 24.5 14.7396 25.13 13.9596 25.13C13.1896 25.13 12.5596 24.5 12.5596 23.73C12.5596 22.96 13.1896 22.33 13.9596 22.33C14.7396 22.34 15.3596 22.96 15.3596 23.73Z" fill="black"/>
<path opacity="0.7" d="M27.9201 23.73C27.9201 24.5 27.2901 25.13 26.5201 25.13C25.7501 25.13 25.1201 24.5 25.1201 23.73C25.1201 22.96 25.7401 22.33 26.5201 22.33C27.3001 22.34 27.9201 22.96 27.9201 23.73Z" fill="black"/>
<path opacity="0.7" d="M40.4904 23.73C40.4904 24.5 39.8704 25.13 39.0904 25.13C38.3204 25.13 37.6904 24.5 37.6904 23.73C37.6904 22.96 38.3204 22.33 39.0904 22.33C39.8604 22.34 40.4904 22.96 40.4904 23.73Z" fill="black"/>
<path opacity="0.7" d="M53.05 23.73C53.05 24.5 52.42 25.13 51.65 25.13C50.88 25.13 50.25 24.5 50.25 23.73C50.25 22.96 50.87 22.33 51.65 22.33C52.43 22.34 53.05 22.96 53.05 23.73Z" fill="black"/>
<path opacity="0.7" d="M65.6203 23.73C65.6203 24.5 64.9903 25.13 64.2203 25.13C63.4503 25.13 62.8203 24.5 62.8203 23.73C62.8203 22.96 63.4503 22.33 64.2203 22.33C64.9903 22.34 65.6203 22.96 65.6203 23.73Z" fill="black"/>
<path opacity="0.7" d="M78.1799 23.73C78.1799 24.5 77.5499 25.13 76.7799 25.13C76.0099 25.13 75.3799 24.5 75.3799 23.73C75.3799 22.96 75.9999 22.33 76.7799 22.33C77.5499 22.34 78.1799 22.96 78.1799 23.73Z" fill="black"/>
<path opacity="0.7" d="M90.7404 23.73C90.7404 24.5 90.1104 25.13 89.3404 25.13C88.5704 25.13 87.9404 24.5 87.9404 23.73C87.9404 22.96 88.5704 22.33 89.3404 22.33C90.1204 22.34 90.7404 22.96 90.7404 23.73Z" fill="black"/>
<path opacity="0.7" d="M103.31 23.73C103.31 24.5 102.68 25.13 101.91 25.13C101.14 25.13 100.51 24.5 100.51 23.73C100.51 22.96 101.13 22.33 101.91 22.33C102.68 22.34 103.31 22.96 103.31 23.73Z" fill="black"/>
<path opacity="0.7" d="M115.87 23.73C115.87 24.5 115.24 25.13 114.47 25.13C113.7 25.13 113.07 24.5 113.07 23.73C113.07 22.96 113.7 22.33 114.47 22.33C115.25 22.34 115.87 22.96 115.87 23.73Z" fill="black"/>
<path opacity="0.7" d="M128.44 23.73C128.44 24.5 127.82 25.13 127.04 25.13C126.26 25.13 125.64 24.5 125.64 23.73C125.64 22.96 126.26 22.33 127.04 22.33C127.82 22.33 128.44 22.96 128.44 23.73Z" fill="black"/>
</g>
<g opacity="0.7">
<path opacity="0.7" d="M2.79999 34.9C2.79999 35.67 2.16999 36.3 1.39999 36.3C0.629994 36.3 0 35.68 0 34.9C0 34.13 0.619994 33.5 1.39999 33.5C2.16999 33.5 2.79999 34.13 2.79999 34.9Z" fill="black"/>
<path opacity="0.7" d="M15.3596 34.9C15.3596 35.67 14.7396 36.3 13.9596 36.3C13.1896 36.3 12.5596 35.68 12.5596 34.9C12.5596 34.13 13.1896 33.5 13.9596 33.5C14.7396 33.5 15.3596 34.13 15.3596 34.9Z" fill="black"/>
<path opacity="0.7" d="M27.9201 34.9C27.9201 35.67 27.2901 36.3 26.5201 36.3C25.7501 36.3 25.1201 35.68 25.1201 34.9C25.1201 34.13 25.7401 33.5 26.5201 33.5C27.3001 33.5 27.9201 34.13 27.9201 34.9Z" fill="black"/>
<path opacity="0.7" d="M40.4904 34.9C40.4904 35.67 39.8704 36.3 39.0904 36.3C38.3204 36.3 37.6904 35.68 37.6904 34.9C37.6904 34.13 38.3204 33.5 39.0904 33.5C39.8604 33.5 40.4904 34.13 40.4904 34.9Z" fill="black"/>
<path opacity="0.7" d="M53.05 34.9C53.05 35.67 52.42 36.3 51.65 36.3C50.88 36.3 50.25 35.68 50.25 34.9C50.25 34.13 50.87 33.5 51.65 33.5C52.43 33.5 53.05 34.13 53.05 34.9Z" fill="black"/>
<path opacity="0.7" d="M65.6203 34.9C65.6203 35.67 64.9903 36.3 64.2203 36.3C63.4503 36.3 62.8203 35.68 62.8203 34.9C62.8203 34.13 63.4503 33.5 64.2203 33.5C64.9903 33.5 65.6203 34.13 65.6203 34.9Z" fill="black"/>
<path opacity="0.7" d="M78.1799 34.9C78.1799 35.67 77.5499 36.3 76.7799 36.3C76.0099 36.3 75.3799 35.68 75.3799 34.9C75.3799 34.13 75.9999 33.5 76.7799 33.5C77.5499 33.5 78.1799 34.13 78.1799 34.9Z" fill="black"/>
<path opacity="0.7" d="M90.7404 34.9C90.7404 35.67 90.1104 36.3 89.3404 36.3C88.5704 36.3 87.9404 35.68 87.9404 34.9C87.9404 34.13 88.5704 33.5 89.3404 33.5C90.1204 33.5 90.7404 34.13 90.7404 34.9Z" fill="black"/>
<path opacity="0.7" d="M103.31 34.9C103.31 35.67 102.68 36.3 101.91 36.3C101.14 36.3 100.51 35.68 100.51 34.9C100.51 34.13 101.13 33.5 101.91 33.5C102.68 33.5 103.31 34.13 103.31 34.9Z" fill="black"/>
<path opacity="0.7" d="M115.87 34.9C115.87 35.67 115.24 36.3 114.47 36.3C113.7 36.3 113.07 35.68 113.07 34.9C113.07 34.13 113.7 33.5 114.47 33.5C115.25 33.5 115.87 34.13 115.87 34.9Z" fill="black"/>
<path opacity="0.7" d="M128.44 34.9C128.44 35.67 127.82 36.3 127.04 36.3C126.26 36.3 125.64 35.68 125.64 34.9C125.64 34.13 126.26 33.5 127.04 33.5C127.82 33.5 128.44 34.13 128.44 34.9Z" fill="black"/>
</g>
<g opacity="0.7">
<path opacity="0.7" d="M1.39999 47.47C2.17319 47.47 2.79999 46.8432 2.79999 46.07C2.79999 45.2968 2.17319 44.67 1.39999 44.67C0.626795 44.67 0 45.2968 0 46.07C0 46.8432 0.626795 47.47 1.39999 47.47Z" fill="black"/>
<path opacity="0.7" d="M13.9596 47.47C14.7328 47.47 15.3596 46.8432 15.3596 46.07C15.3596 45.2968 14.7328 44.67 13.9596 44.67C13.1864 44.67 12.5596 45.2968 12.5596 46.07C12.5596 46.8432 13.1864 47.47 13.9596 47.47Z" fill="black"/>
<path opacity="0.7" d="M26.5299 47.47C27.3031 47.47 27.9299 46.8432 27.9299 46.07C27.9299 45.2968 27.3031 44.67 26.5299 44.67C25.7567 44.67 25.1299 45.2968 25.1299 46.07C25.1299 46.8432 25.7567 47.47 26.5299 47.47Z" fill="black"/>
<path opacity="0.7" d="M39.0904 47.47C39.8636 47.47 40.4904 46.8432 40.4904 46.07C40.4904 45.2968 39.8636 44.67 39.0904 44.67C38.3172 44.67 37.6904 45.2968 37.6904 46.07C37.6904 46.8432 38.3172 47.47 39.0904 47.47Z" fill="black"/>
<path opacity="0.7" d="M51.6598 47.47C52.433 47.47 53.0598 46.8432 53.0598 46.07C53.0598 45.2968 52.433 44.67 51.6598 44.67C50.8866 44.67 50.2598 45.2968 50.2598 46.07C50.2598 46.8432 50.8866 47.47 51.6598 47.47Z" fill="black"/>
<path opacity="0.7" d="M65.6203 46.07C65.6203 46.84 64.9903 47.47 64.2203 47.47C63.4503 47.47 62.8203 46.85 62.8203 46.07C62.8203 45.29 63.4503 44.67 64.2203 44.67C64.9903 44.67 65.6203 45.3 65.6203 46.07Z" fill="black"/>
<path opacity="0.7" d="M76.7799 47.47C77.5531 47.47 78.1799 46.8432 78.1799 46.07C78.1799 45.2968 77.5531 44.67 76.7799 44.67C76.0067 44.67 75.3799 45.2968 75.3799 46.07C75.3799 46.8432 76.0067 47.47 76.7799 47.47Z" fill="black"/>
<path opacity="0.7" d="M90.7404 46.07C90.7404 46.84 90.1104 47.47 89.3404 47.47C88.5704 47.47 87.9404 46.85 87.9404 46.07C87.9404 45.29 88.5704 44.67 89.3404 44.67C90.1204 44.67 90.7404 45.3 90.7404 46.07Z" fill="black"/>
<path opacity="0.7" d="M101.91 47.47C102.683 47.47 103.31 46.8432 103.31 46.07C103.31 45.2968 102.683 44.67 101.91 44.67C101.137 44.67 100.51 45.2968 100.51 46.07C100.51 46.8432 101.137 47.47 101.91 47.47Z" fill="black"/>
<path opacity="0.7" d="M115.87 46.07C115.87 46.84 115.24 47.47 114.47 47.47C113.7 47.47 113.07 46.85 113.07 46.07C113.07 45.29 113.7 44.67 114.47 44.67C115.25 44.67 115.87 45.3 115.87 46.07Z" fill="black"/>
<path opacity="0.7" d="M127.04 47.47C127.813 47.47 128.44 46.8432 128.44 46.07C128.44 45.2968 127.813 44.67 127.04 44.67C126.266 44.67 125.64 45.2968 125.64 46.07C125.64 46.8432 126.266 47.47 127.04 47.47Z" fill="black"/>
</g>
<g opacity="0.7">
<path opacity="0.7" d="M1.39999 58.64C2.17319 58.64 2.79999 58.0132 2.79999 57.24C2.79999 56.4668 2.17319 55.84 1.39999 55.84C0.626795 55.84 0 56.4668 0 57.24C0 58.0132 0.626795 58.64 1.39999 58.64Z" fill="black"/>
<path opacity="0.7" d="M13.9596 58.64C14.7328 58.64 15.3596 58.0132 15.3596 57.24C15.3596 56.4668 14.7328 55.84 13.9596 55.84C13.1864 55.84 12.5596 56.4668 12.5596 57.24C12.5596 58.0132 13.1864 58.64 13.9596 58.64Z" fill="black"/>
<path opacity="0.7" d="M26.5299 58.64C27.3031 58.64 27.9299 58.0132 27.9299 57.24C27.9299 56.4668 27.3031 55.84 26.5299 55.84C25.7567 55.84 25.1299 56.4668 25.1299 57.24C25.1299 58.0132 25.7567 58.64 26.5299 58.64Z" fill="black"/>
<path opacity="0.7" d="M39.0904 58.64C39.8636 58.64 40.4904 58.0132 40.4904 57.24C40.4904 56.4668 39.8636 55.84 39.0904 55.84C38.3172 55.84 37.6904 56.4668 37.6904 57.24C37.6904 58.0132 38.3172 58.64 39.0904 58.64Z" fill="black"/>
<path opacity="0.7" d="M51.6598 58.64C52.433 58.64 53.0598 58.0132 53.0598 57.24C53.0598 56.4668 52.433 55.84 51.6598 55.84C50.8866 55.84 50.2598 56.4668 50.2598 57.24C50.2598 58.0132 50.8866 58.64 51.6598 58.64Z" fill="black"/>
<path opacity="0.7" d="M65.6203 57.24C65.6203 58.01 64.9903 58.64 64.2203 58.64C63.4503 58.64 62.8203 58.01 62.8203 57.24C62.8203 56.47 63.4503 55.84 64.2203 55.84C64.9903 55.84 65.6203 56.46 65.6203 57.24Z" fill="black"/>
<path opacity="0.7" d="M76.7799 58.64C77.5531 58.64 78.1799 58.0132 78.1799 57.24C78.1799 56.4668 77.5531 55.84 76.7799 55.84C76.0067 55.84 75.3799 56.4668 75.3799 57.24C75.3799 58.0132 76.0067 58.64 76.7799 58.64Z" fill="black"/>
<path opacity="0.7" d="M90.7404 57.24C90.7404 58.01 90.1104 58.64 89.3404 58.64C88.5704 58.64 87.9404 58.01 87.9404 57.24C87.9404 56.47 88.5704 55.84 89.3404 55.84C90.1204 55.84 90.7404 56.46 90.7404 57.24Z" fill="black"/>
<path opacity="0.7" d="M101.91 58.64C102.683 58.64 103.31 58.0132 103.31 57.24C103.31 56.4668 102.683 55.84 101.91 55.84C101.137 55.84 100.51 56.4668 100.51 57.24C100.51 58.0132 101.137 58.64 101.91 58.64Z" fill="black"/>
<path opacity="0.7" d="M115.87 57.24C115.87 58.01 115.24 58.64 114.47 58.64C113.7 58.64 113.07 58.01 113.07 57.24C113.07 56.47 113.7 55.84 114.47 55.84C115.25 55.84 115.87 56.46 115.87 57.24Z" fill="black"/>
<path opacity="0.7" d="M127.04 58.64C127.813 58.64 128.44 58.0132 128.44 57.24C128.44 56.4668 127.813 55.84 127.04 55.84C126.266 55.84 125.64 56.4668 125.64 57.24C125.64 58.0132 126.266 58.64 127.04 58.64Z" fill="black"/>
</g>
<g opacity="0.7">
<path opacity="0.7" d="M1.39999 69.8C2.17319 69.8 2.79999 69.1732 2.79999 68.4C2.79999 67.6268 2.17319 67 1.39999 67C0.626795 67 0 67.6268 0 68.4C0 69.1732 0.626795 69.8 1.39999 69.8Z" fill="black"/>
<path opacity="0.7" d="M13.9596 69.8C14.7328 69.8 15.3596 69.1732 15.3596 68.4C15.3596 67.6268 14.7328 67 13.9596 67C13.1864 67 12.5596 67.6268 12.5596 68.4C12.5596 69.1732 13.1864 69.8 13.9596 69.8Z" fill="black"/>
<path opacity="0.7" d="M26.5299 69.8C27.3031 69.8 27.9299 69.1732 27.9299 68.4C27.9299 67.6268 27.3031 67 26.5299 67C25.7567 67 25.1299 67.6268 25.1299 68.4C25.1299 69.1732 25.7567 69.8 26.5299 69.8Z" fill="black"/>
<path opacity="0.7" d="M39.0904 69.8C39.8636 69.8 40.4904 69.1732 40.4904 68.4C40.4904 67.6268 39.8636 67 39.0904 67C38.3172 67 37.6904 67.6268 37.6904 68.4C37.6904 69.1732 38.3172 69.8 39.0904 69.8Z" fill="black"/>
<path opacity="0.7" d="M51.6598 69.8C52.433 69.8 53.0598 69.1732 53.0598 68.4C53.0598 67.6268 52.433 67 51.6598 67C50.8866 67 50.2598 67.6268 50.2598 68.4C50.2598 69.1732 50.8866 69.8 51.6598 69.8Z" fill="black"/>
<path opacity="0.7" d="M65.6203 68.4C65.6203 69.17 64.9903 69.8 64.2203 69.8C63.4503 69.8 62.8203 69.18 62.8203 68.4C62.8203 67.62 63.4503 67 64.2203 67C64.9903 67.01 65.6203 67.63 65.6203 68.4Z" fill="black"/>
<path opacity="0.7" d="M76.7799 69.8C77.5531 69.8 78.1799 69.1732 78.1799 68.4C78.1799 67.6268 77.5531 67 76.7799 67C76.0067 67 75.3799 67.6268 75.3799 68.4C75.3799 69.1732 76.0067 69.8 76.7799 69.8Z" fill="black"/>
<path opacity="0.7" d="M90.7404 68.4C90.7404 69.17 90.1104 69.8 89.3404 69.8C88.5704 69.8 87.9404 69.18 87.9404 68.4C87.9404 67.62 88.5704 67 89.3404 67C90.1204 67.01 90.7404 67.63 90.7404 68.4Z" fill="black"/>
<path opacity="0.7" d="M101.91 69.8C102.683 69.8 103.31 69.1732 103.31 68.4C103.31 67.6268 102.683 67 101.91 67C101.137 67 100.51 67.6268 100.51 68.4C100.51 69.1732 101.137 69.8 101.91 69.8Z" fill="black"/>
<path opacity="0.7" d="M115.87 68.4C115.87 69.17 115.24 69.8 114.47 69.8C113.7 69.8 113.07 69.18 113.07 68.4C113.07 67.62 113.7 67 114.47 67C115.25 67.01 115.87 67.63 115.87 68.4Z" fill="black"/>
<path opacity="0.7" d="M127.04 69.8C127.813 69.8 128.44 69.1732 128.44 68.4C128.44 67.6268 127.813 67 127.04 67C126.266 67 125.64 67.6268 125.64 68.4C125.64 69.1732 126.266 69.8 127.04 69.8Z" fill="black"/>
</g>
<g opacity="0.7">
<path opacity="0.7" d="M2.79999 79.57C2.79999 80.34 2.16999 80.97 1.39999 80.97C0.629994 80.97 0 80.35 0 79.57C0 78.8 0.619994 78.17 1.39999 78.17C2.16999 78.18 2.79999 78.8 2.79999 79.57Z" fill="black"/>
<path opacity="0.7" d="M15.3596 79.57C15.3596 80.34 14.7396 80.97 13.9596 80.97C13.1896 80.97 12.5596 80.35 12.5596 79.57C12.5596 78.8 13.1896 78.17 13.9596 78.17C14.7396 78.18 15.3596 78.8 15.3596 79.57Z" fill="black"/>
<path opacity="0.7" d="M27.9201 79.57C27.9201 80.34 27.2901 80.97 26.5201 80.97C25.7501 80.97 25.1201 80.35 25.1201 79.57C25.1201 78.8 25.7401 78.17 26.5201 78.17C27.3001 78.18 27.9201 78.8 27.9201 79.57Z" fill="black"/>
<path opacity="0.7" d="M40.4904 79.57C40.4904 80.34 39.8704 80.97 39.0904 80.97C38.3204 80.97 37.6904 80.35 37.6904 79.57C37.6904 78.8 38.3204 78.17 39.0904 78.17C39.8604 78.18 40.4904 78.8 40.4904 79.57Z" fill="black"/>
<path opacity="0.7" d="M53.05 79.57C53.05 80.34 52.42 80.97 51.65 80.97C50.88 80.97 50.25 80.35 50.25 79.57C50.25 78.8 50.87 78.17 51.65 78.17C52.43 78.18 53.05 78.8 53.05 79.57Z" fill="black"/>
<path opacity="0.7" d="M65.6203 79.57C65.6203 80.34 64.9903 80.97 64.2203 80.97C63.4503 80.97 62.8203 80.35 62.8203 79.57C62.8203 78.8 63.4503 78.17 64.2203 78.17C64.9903 78.18 65.6203 78.8 65.6203 79.57Z" fill="black"/>
<path opacity="0.7" d="M78.1799 79.57C78.1799 80.34 77.5499 80.97 76.7799 80.97C76.0099 80.97 75.3799 80.35 75.3799 79.57C75.3799 78.8 75.9999 78.17 76.7799 78.17C77.5499 78.18 78.1799 78.8 78.1799 79.57Z" fill="black"/>
<path opacity="0.7" d="M90.7404 79.57C90.7404 80.34 90.1104 80.97 89.3404 80.97C88.5704 80.97 87.9404 80.35 87.9404 79.57C87.9404 78.8 88.5704 78.17 89.3404 78.17C90.1204 78.18 90.7404 78.8 90.7404 79.57Z" fill="black"/>
<path opacity="0.7" d="M103.31 79.57C103.31 80.34 102.68 80.97 101.91 80.97C101.14 80.97 100.51 80.35 100.51 79.57C100.51 78.8 101.13 78.17 101.91 78.17C102.68 78.18 103.31 78.8 103.31 79.57Z" fill="black"/>
<path opacity="0.7" d="M115.87 79.57C115.87 80.34 115.24 80.97 114.47 80.97C113.7 80.97 113.07 80.35 113.07 79.57C113.07 78.8 113.7 78.17 114.47 78.17C115.25 78.18 115.87 78.8 115.87 79.57Z" fill="black"/>
<path opacity="0.7" d="M128.44 79.57C128.44 80.34 127.82 80.97 127.04 80.97C126.26 80.97 125.64 80.35 125.64 79.57C125.64 78.8 126.26 78.17 127.04 78.17C127.82 78.17 128.44 78.8 128.44 79.57Z" fill="black"/>
</g>
<g opacity="0.7">
<path opacity="0.7" d="M2.79999 90.74C2.79999 91.51 2.16999 92.14 1.39999 92.14C0.629994 92.14 0 91.52 0 90.74C0 89.97 0.619994 89.34 1.39999 89.34C2.16999 89.34 2.79999 89.97 2.79999 90.74Z" fill="black"/>
<path opacity="0.7" d="M15.3596 90.74C15.3596 91.51 14.7396 92.14 13.9596 92.14C13.1896 92.14 12.5596 91.52 12.5596 90.74C12.5596 89.97 13.1896 89.34 13.9596 89.34C14.7396 89.34 15.3596 89.97 15.3596 90.74Z" fill="black"/>
<path opacity="0.7" d="M27.9201 90.74C27.9201 91.51 27.2901 92.14 26.5201 92.14C25.7501 92.14 25.1201 91.52 25.1201 90.74C25.1201 89.97 25.7401 89.34 26.5201 89.34C27.3001 89.34 27.9201 89.97 27.9201 90.74Z" fill="black"/>
<path opacity="0.7" d="M40.4904 90.74C40.4904 91.51 39.8704 92.14 39.0904 92.14C38.3204 92.14 37.6904 91.52 37.6904 90.74C37.6904 89.97 38.3204 89.34 39.0904 89.34C39.8604 89.34 40.4904 89.97 40.4904 90.74Z" fill="black"/>
<path opacity="0.7" d="M53.05 90.74C53.05 91.51 52.42 92.14 51.65 92.14C50.88 92.14 50.25 91.52 50.25 90.74C50.25 89.97 50.87 89.34 51.65 89.34C52.43 89.34 53.05 89.97 53.05 90.74Z" fill="black"/>
<path opacity="0.7" d="M65.6203 90.74C65.6203 91.51 64.9903 92.14 64.2203 92.14C63.4503 92.14 62.8203 91.52 62.8203 90.74C62.8203 89.97 63.4503 89.34 64.2203 89.34C64.9903 89.34 65.6203 89.97 65.6203 90.74Z" fill="black"/>
<path opacity="0.7" d="M78.1799 90.74C78.1799 91.51 77.5499 92.14 76.7799 92.14C76.0099 92.14 75.3799 91.52 75.3799 90.74C75.3799 89.97 75.9999 89.34 76.7799 89.34C77.5499 89.34 78.1799 89.97 78.1799 90.74Z" fill="black"/>
<path opacity="0.7" d="M90.7404 90.74C90.7404 91.51 90.1104 92.14 89.3404 92.14C88.5704 92.14 87.9404 91.52 87.9404 90.74C87.9404 89.97 88.5704 89.34 89.3404 89.34C90.1204 89.34 90.7404 89.97 90.7404 90.74Z" fill="black"/>
<path opacity="0.7" d="M103.31 90.74C103.31 91.51 102.68 92.14 101.91 92.14C101.14 92.14 100.51 91.52 100.51 90.74C100.51 89.97 101.13 89.34 101.91 89.34C102.68 89.34 103.31 89.97 103.31 90.74Z" fill="black"/>
<path opacity="0.7" d="M115.87 90.74C115.87 91.51 115.24 92.14 114.47 92.14C113.7 92.14 113.07 91.52 113.07 90.74C113.07 89.97 113.7 89.34 114.47 89.34C115.25 89.34 115.87 89.97 115.87 90.74Z" fill="black"/>
<path opacity="0.7" d="M128.44 90.74C128.44 91.51 127.82 92.14 127.04 92.14C126.26 92.14 125.64 91.52 125.64 90.74C125.64 89.97 126.26 89.34 127.04 89.34C127.82 89.34 128.44 89.97 128.44 90.74Z" fill="black"/>
</g>
<g opacity="0.7">
<path opacity="0.7" d="M1.39999 103.31C2.17319 103.31 2.79999 102.683 2.79999 101.91C2.79999 101.137 2.17319 100.51 1.39999 100.51C0.626795 100.51 0 101.137 0 101.91C0 102.683 0.626795 103.31 1.39999 103.31Z" fill="black"/>
<path opacity="0.7" d="M13.9596 103.31C14.7328 103.31 15.3596 102.683 15.3596 101.91C15.3596 101.137 14.7328 100.51 13.9596 100.51C13.1864 100.51 12.5596 101.137 12.5596 101.91C12.5596 102.683 13.1864 103.31 13.9596 103.31Z" fill="black"/>
<path opacity="0.7" d="M26.5299 103.31C27.3031 103.31 27.9299 102.683 27.9299 101.91C27.9299 101.137 27.3031 100.51 26.5299 100.51C25.7567 100.51 25.1299 101.137 25.1299 101.91C25.1299 102.683 25.7567 103.31 26.5299 103.31Z" fill="black"/>
<path opacity="0.7" d="M39.0904 103.31C39.8636 103.31 40.4904 102.683 40.4904 101.91C40.4904 101.137 39.8636 100.51 39.0904 100.51C38.3172 100.51 37.6904 101.137 37.6904 101.91C37.6904 102.683 38.3172 103.31 39.0904 103.31Z" fill="black"/>
<path opacity="0.7" d="M51.6598 103.31C52.433 103.31 53.0598 102.683 53.0598 101.91C53.0598 101.137 52.433 100.51 51.6598 100.51C50.8866 100.51 50.2598 101.137 50.2598 101.91C50.2598 102.683 50.8866 103.31 51.6598 103.31Z" fill="black"/>
<path opacity="0.7" d="M65.6203 101.91C65.6203 102.68 64.9903 103.31 64.2203 103.31C63.4503 103.31 62.8203 102.69 62.8203 101.91C62.8203 101.13 63.4503 100.51 64.2203 100.51C64.9903 100.51 65.6203 101.14 65.6203 101.91Z" fill="black"/>
<path opacity="0.7" d="M76.7799 103.31C77.5531 103.31 78.1799 102.683 78.1799 101.91C78.1799 101.137 77.5531 100.51 76.7799 100.51C76.0067 100.51 75.3799 101.137 75.3799 101.91C75.3799 102.683 76.0067 103.31 76.7799 103.31Z" fill="black"/>
<path opacity="0.7" d="M90.7404 101.91C90.7404 102.68 90.1104 103.31 89.3404 103.31C88.5704 103.31 87.9404 102.69 87.9404 101.91C87.9404 101.13 88.5704 100.51 89.3404 100.51C90.1204 100.51 90.7404 101.14 90.7404 101.91Z" fill="black"/>
<path opacity="0.7" d="M101.91 103.31C102.683 103.31 103.31 102.683 103.31 101.91C103.31 101.137 102.683 100.51 101.91 100.51C101.137 100.51 100.51 101.137 100.51 101.91C100.51 102.683 101.137 103.31 101.91 103.31Z" fill="black"/>
<path opacity="0.7" d="M115.87 101.91C115.87 102.68 115.24 103.31 114.47 103.31C113.7 103.31 113.07 102.69 113.07 101.91C113.07 101.13 113.7 100.51 114.47 100.51C115.25 100.51 115.87 101.14 115.87 101.91Z" fill="black"/>
<path opacity="0.7" d="M127.04 103.31C127.813 103.31 128.44 102.683 128.44 101.91C128.44 101.137 127.813 100.51 127.04 100.51C126.266 100.51 125.64 101.137 125.64 101.91C125.64 102.683 126.266 103.31 127.04 103.31Z" fill="black"/>
</g>
<g opacity="0.7">
<path opacity="0.7" d="M2.79999 113.07C2.79999 113.84 2.16999 114.47 1.39999 114.47C0.629994 114.47 0 113.84 0 113.07C0 112.3 0.619994 111.67 1.39999 111.67C2.16999 111.68 2.79999 112.3 2.79999 113.07Z" fill="black"/>
<path opacity="0.7" d="M15.3596 113.07C15.3596 113.84 14.7396 114.47 13.9596 114.47C13.1896 114.47 12.5596 113.84 12.5596 113.07C12.5596 112.3 13.1896 111.67 13.9596 111.67C14.7396 111.68 15.3596 112.3 15.3596 113.07Z" fill="black"/>
<path opacity="0.7" d="M27.9201 113.07C27.9201 113.84 27.2901 114.47 26.5201 114.47C25.7501 114.47 25.1201 113.84 25.1201 113.07C25.1201 112.3 25.7401 111.67 26.5201 111.67C27.3001 111.68 27.9201 112.3 27.9201 113.07Z" fill="black"/>
<path opacity="0.7" d="M40.4904 113.07C40.4904 113.84 39.8704 114.47 39.0904 114.47C38.3204 114.47 37.6904 113.84 37.6904 113.07C37.6904 112.3 38.3204 111.67 39.0904 111.67C39.8604 111.68 40.4904 112.3 40.4904 113.07Z" fill="black"/>
<path opacity="0.7" d="M53.05 113.07C53.05 113.84 52.42 114.47 51.65 114.47C50.88 114.47 50.25 113.84 50.25 113.07C50.25 112.3 50.87 111.67 51.65 111.67C52.43 111.68 53.05 112.3 53.05 113.07Z" fill="black"/>
<path opacity="0.7" d="M65.6203 113.07C65.6203 113.84 64.9903 114.47 64.2203 114.47C63.4503 114.47 62.8203 113.84 62.8203 113.07C62.8203 112.3 63.4503 111.67 64.2203 111.67C64.9903 111.68 65.6203 112.3 65.6203 113.07Z" fill="black"/>
<path opacity="0.7" d="M78.1799 113.07C78.1799 113.84 77.5499 114.47 76.7799 114.47C76.0099 114.47 75.3799 113.84 75.3799 113.07C75.3799 112.3 75.9999 111.67 76.7799 111.67C77.5499 111.68 78.1799 112.3 78.1799 113.07Z" fill="black"/>
<path opacity="0.7" d="M90.7404 113.07C90.7404 113.84 90.1104 114.47 89.3404 114.47C88.5704 114.47 87.9404 113.84 87.9404 113.07C87.9404 112.3 88.5704 111.67 89.3404 111.67C90.1204 111.68 90.7404 112.3 90.7404 113.07Z" fill="black"/>
<path opacity="0.7" d="M103.31 113.07C103.31 113.84 102.68 114.47 101.91 114.47C101.14 114.47 100.51 113.84 100.51 113.07C100.51 112.3 101.13 111.67 101.91 111.67C102.68 111.68 103.31 112.3 103.31 113.07Z" fill="black"/>
<path opacity="0.7" d="M115.87 113.07C115.87 113.84 115.24 114.47 114.47 114.47C113.7 114.47 113.07 113.84 113.07 113.07C113.07 112.3 113.7 111.67 114.47 111.67C115.25 111.68 115.87 112.3 115.87 113.07Z" fill="black"/>
<path opacity="0.7" d="M128.44 113.07C128.44 113.84 127.82 114.47 127.04 114.47C126.26 114.47 125.64 113.84 125.64 113.07C125.64 112.3 126.26 111.67 127.04 111.67C127.82 111.67 128.44 112.3 128.44 113.07Z" fill="black"/>
</g>
<g opacity="0.7">
<path opacity="0.7" d="M1.39999 125.64C2.17319 125.64 2.79999 125.013 2.79999 124.24C2.79999 123.467 2.17319 122.84 1.39999 122.84C0.626795 122.84 0 123.467 0 124.24C0 125.013 0.626795 125.64 1.39999 125.64Z" fill="black"/>
<path opacity="0.7" d="M13.9596 125.64C14.7328 125.64 15.3596 125.013 15.3596 124.24C15.3596 123.467 14.7328 122.84 13.9596 122.84C13.1864 122.84 12.5596 123.467 12.5596 124.24C12.5596 125.013 13.1864 125.64 13.9596 125.64Z" fill="black"/>
<path opacity="0.7" d="M26.5299 125.64C27.3031 125.64 27.9299 125.013 27.9299 124.24C27.9299 123.467 27.3031 122.84 26.5299 122.84C25.7567 122.84 25.1299 123.467 25.1299 124.24C25.1299 125.013 25.7567 125.64 26.5299 125.64Z" fill="black"/>
<path opacity="0.7" d="M39.0904 125.64C39.8636 125.64 40.4904 125.013 40.4904 124.24C40.4904 123.467 39.8636 122.84 39.0904 122.84C38.3172 122.84 37.6904 123.467 37.6904 124.24C37.6904 125.013 38.3172 125.64 39.0904 125.64Z" fill="black"/>
<path opacity="0.7" d="M51.6598 125.64C52.433 125.64 53.0598 125.013 53.0598 124.24C53.0598 123.467 52.433 122.84 51.6598 122.84C50.8866 122.84 50.2598 123.467 50.2598 124.24C50.2598 125.013 50.8866 125.64 51.6598 125.64Z" fill="black"/>
<path opacity="0.7" d="M65.6203 124.24C65.6203 125.01 64.9903 125.64 64.2203 125.64C63.4503 125.64 62.8203 125.01 62.8203 124.24C62.8203 123.47 63.4503 122.84 64.2203 122.84C64.9903 122.85 65.6203 123.47 65.6203 124.24Z" fill="black"/>
<path opacity="0.7" d="M76.7799 125.64C77.5531 125.64 78.1799 125.013 78.1799 124.24C78.1799 123.467 77.5531 122.84 76.7799 122.84C76.0067 122.84 75.3799 123.467 75.3799 124.24C75.3799 125.013 76.0067 125.64 76.7799 125.64Z" fill="black"/>
<path opacity="0.7" d="M90.7404 124.24C90.7404 125.01 90.1104 125.64 89.3404 125.64C88.5704 125.64 87.9404 125.01 87.9404 124.24C87.9404 123.47 88.5704 122.84 89.3404 122.84C90.1204 122.85 90.7404 123.47 90.7404 124.24Z" fill="black"/>
<path opacity="0.7" d="M101.91 125.64C102.683 125.64 103.31 125.013 103.31 124.24C103.31 123.467 102.683 122.84 101.91 122.84C101.137 122.84 100.51 123.467 100.51 124.24C100.51 125.013 101.137 125.64 101.91 125.64Z" fill="black"/>
<path opacity="0.7" d="M115.87 124.24C115.87 125.01 115.24 125.64 114.47 125.64C113.7 125.64 113.07 125.01 113.07 124.24C113.07 123.47 113.7 122.84 114.47 122.84C115.25 122.85 115.87 123.47 115.87 124.24Z" fill="black"/>
<path opacity="0.7" d="M127.04 125.64C127.813 125.64 128.44 125.013 128.44 124.24C128.44 123.467 127.813 122.84 127.04 122.84C126.266 122.84 125.64 123.467 125.64 124.24C125.64 125.013 126.266 125.64 127.04 125.64Z" fill="black"/>
</g>
</svg>
