<svg width="28" height="28" viewBox="0 0 28 28" fill="none" xmlns="http://www.w3.org/2000/svg">
<g clip-path="url(#clip0)">
<path d="M27.7273 14.3225C27.7273 13.3709 27.6501 12.414 27.4855 11.4778H14.2803V16.8689H21.8423C21.5285 18.6077 20.5202 20.1458 19.0438 21.1232V24.6213H23.5553C26.2046 22.1829 27.7273 18.582 27.7273 14.3225Z" fill="#4285F4"/>
<path d="M14.2803 28.001C18.0561 28.001 21.2404 26.7612 23.5605 24.6213L19.049 21.1232C17.7938 21.9771 16.1734 22.4607 14.2854 22.4607C10.633 22.4607 7.5362 19.9966 6.42505 16.6837H1.76953V20.2898C4.14616 25.0174 8.98688 28.001 14.2803 28.001Z" fill="#34A853"/>
<path d="M6.4199 16.6837C5.83346 14.9449 5.83346 13.0621 6.4199 11.3234V7.71729H1.76953C-0.216144 11.6732 -0.216144 16.3339 1.76953 20.2898L6.4199 16.6837Z" fill="#FBBC04"/>
<path d="M14.2803 5.54127C16.2762 5.5104 18.2053 6.26146 19.6508 7.64011L23.6479 3.64305C21.1169 1.26642 17.7578 -0.0402103 14.2803 0.000943444C8.98687 0.000943444 4.14616 2.98459 1.76953 7.71728L6.41991 11.3234C7.52592 8.00535 10.6279 5.54127 14.2803 5.54127Z" fill="#EA4335"/>
</g>
<defs>
<clipPath id="clip0">
<rect width="28" height="28" fill="white"/>
</clipPath>
</defs>
</svg>
